<?xml version="1.0" encoding="UTF-8"?>
<svg id="Layer_1" xmlns="http://www.w3.org/2000/svg" version="1.1" viewBox="0 0 1390.9 312.7">
  <!-- Generator: Adobe Illustrator 30.2.1, SVG Export Plug-In . SVG Version: 2.1.1 Build 1)  -->
  <defs>
    <style>
      .st0 {
        fill: #a3342e;
      }

      .st1, .st2 {
        fill: #00476b;
      }

      .st3 {
        fill: #1d1c1a;
      }

      .st4 {
        fill: #e84848;
      }

      .st2 {
        font-family: Seravek-Medium, Seravek;
        font-size: 47.7px;
        font-weight: 500;
        letter-spacing: .3em;
      }

      .st5 {
        fill: #e61e25;
      }

      .st6 {
        fill: #fff;
      }

      .st7 {
        fill: #ff7071;
      }

      .st8 {
        fill: #e0e1e0;
      }

      .st9 {
        fill: #711512;
      }

      .st10 {
        fill: #d1d1d1;
      }
    </style>
  </defs>
  <text class="st2" transform="translate(627.9 42.3)"><tspan x="0" y="0">POWERED BY</tspan></text>
  <g>
    <path class="st7" d="M1348.5,223.6c3.5-.5,5.7-.9,13.5,1.7,8,2.6,13.6,5.7,16.8,8.4,2,1.8,8.2,6.3,10.1,15.1-8.5,3.1-23.2,6-37,1.7-4.4-1.4-18.1-5.7-18.5-13.5-.3-6.1,7.9-12.4,15.1-13.5Z"/>
    <g>
      <path class="st7" d="M1212.6,117.8c4.6-4.3,24.2-10.6,37.8-13.6,23.4-5.2,42.4,4.1,47.8,7.2.2.1.4,0,.3-.3-.7-2-1.4-4.9-1.3-8.4.3-8.8,5.8-14.7,7.6-16.6,8.2-8.9,19.6-10,25.7-10.6,5.2-.5,17.4-1.5,28.7,6,3.1,2,8.8,5.9,12.1,13.6,3.5,8.2,2.1,15.6,1.5,18.1-1.7,7.2-5.7,11.9-8,14.1-.4.4-.4,1.1,0,1.5l2.1,2.5c1.4,1.7,2.3,3.3,3,4.5,0,.2.2.3.3.5.8,1.5,1.2,3.2,1.2,4.8v62.6c0,.7.1,1.8,0,3,0,1.1-.6,5.1-4.5,10.6-2.5,3.4-5.8,8-12.1,10.6-5.7,2.4-10.9,1.9-13.6,1.5"/>
      <g>
        <path class="st7" d="M1368.6,123.1c2,1.1,3.4,2.3,4.3,3.2,1.2,1.2,3.6,3.6,4.3,7.4.3,1.8.2,3.3,0,4.3v59.5c0,.2,0,.6,0,1.1-.1,7.4-3.2,13-4.3,14.9-1.1,1.8-3.3,5.5-7.4,8.5-8.1,5.8-17.5,4.7-20.2,4.3"/>
        <path class="st7" d="M1219.8,112.5c2.3-6.9,9.6-13,10.6-13.8,21.7-17.9,58.2-7.4,69.1-4.3,4.2,1.2,7.5,2.4,9.6,3.2-2.1-3.2-4.3-6.4-6.4-9.6-.7-1.1-1.4-2.1-2.1-3.2,1.4-2.8,3.7-6.7,7.4-10.6,6.6-6.8,13.8-9.5,17-10.6,4.4-1.6,18-6.4,33,0,3,1.3,15.7,7.2,21.3,21.3,1.1,2.8,3.7,9.5,2.1,18.1-2.1,11.8-10.5,18.5-12.8,20.2,1.1.5,2.7,1.5,4.3,3.2.6.6,1,1.2,1.4,1.8.5.8.8,1.8.8,2.7v60.3c0,4.3,0,5.2,0,5.3,0,1.6-.4,6-2.1,10.6-.9,2.4-2.5,6.7-6.4,10.6-5.1,5.2-10.9,6.7-13.8,7.4-6.9,1.7-12.8.8-15.9,0-16.1-9.5-128.7-77.4-116.9-112.7Z"/>
        <path class="st7" d="M715.9,92.3c-3-3.5-7.8-8.5-14.9-12.8-3.9-2.4-14.3-8.4-28.7-8.5-5,0-23.3.6-37.2,14.9-6,6.2-9.1,12.8-10.6,17-.4.7-.8,1.8-1.1,3.2-.3,1.7,0,2.9,0,3.2.3,1.9.4,18.5,0,64.9,0,1.1,0,2.5,0,4.2,0,0,.2,4.3,1.1,8.5.4,1.9,1.8,7.8,6.4,15.9,2.9,5.2,6.6,11.7,13.8,18.1,7.7,6.7,15.7,10,21.3,11.7,1.3.3,3.1.7,5.3,1.1,3.6.6,6.7.9,10.6,1.1,8.2.4,12.2.6,15.9,0,3.1-.5,7.6-1.6,12.8-4.3,1.8-46.1,3.5-92.1,5.3-138.2Z"/>
        <g>
          <path class="st7" d="M715.4,91.8c4.5-.9,11.6-1.8,20.2-.5,9.5,1.5,16.6,5.2,20.7,7.7,5.6-2.9,13.7-6.3,23.9-7.9,16.9-2.6,30.6,1,37.8,3.5,2.1-3,11.9-16.2,30.2-20,15.4-3.2,27.6,2.3,31.3,4.2,7.9,3.9,13,9.2,15.8,12.5,5.8-5.6,17.6-15.4,35.1-18.6,5.5-1,13.8-2.4,23.4.5,18.2,5.4,26.8,21.5,28.8,25.5,2.6-.5,7.2-1.1,12.5.2,8,2,12.8,7,14.6,9.1,6.3-5.4,21.2-16.8,43.4-20,32.6-4.7,56.9,11.6,62.4,15.6,5.4-4.1,24.6-17.9,52.5-17.2,29.9.8,49.2,17.7,53.9,22.1,6.5-3.8,19.1-10,36-11.1,12.7-.9,33,1.3,39.6,3.4,1.9-4.6-1.3-19.5,15.4-28.7,4.9-2.7,15.5-8.7,29.5-7,3.8.5,19,2.4,27.9,15.8,8.1,12.2,5.3,25.6,4.2,29.7-1.6,5.9-4.3,10.3-6.3,13,.4.8.8,1.9,1.2,3.3.8,3,.5,5.5.5,6-.3,3.6-.1,28.2.2,62.7.2,1.8.5,5.9-1.6,10.2-6.6,13.5-21.2,17.2-22.9,17,.8,0,.3,8.2.6,11.8,0,.6,9.8-4.2,14.6-4.2,4.5,0,4.4-.2,9.1.5,8.4,1.1,16.2,9.2,18.1,13.4,2.7,6.1,2.9,11.2,2.9,12.6,0,15.4-3.9,25.9-6.8,30.2-3.9,5.8-15.7,21.2-36.7,25.1-4.8.9-23,1.9-35.8-4.9-13.1-7-21.9-16.1-27.3-28.1-2.3-5.3-5.6-13.6-6.2-16.9-2.1-10.9-3.6-19.5-.3-28.6.2-.5-.4-1.1-.9-.8-3.9,1.9-12.6,1.5-23.9.5-15.2-1.1-25.3-8.9-28.6-11.6-6.8,4.8-21.2,13.5-41.3,15.3-29.4,2.7-50.9-11-57.1-15.3-7.3,4.7-27.6,16.2-55.7,15.3-26.8-.8-45.7-12.4-52.9-17.4-3.9,3.4-21.6,18.1-48.1,17.4-24.9-.6-41.1-14.4-45.3-18.1-5.2,4.4-16.4,12.6-32.7,15.3-27.4,4.5-48-10.1-52.2-13.2-.6,1.3-4.1,8-11.8,10.4-6.9,2.2-14.6.3-20.2-4.9-5.1,2.4-13.3,5.3-23.7,5.6-19.5.5-33.5-8.9-38.3-12.5-5.1,3.8-22.9,15.9-48.1,14.6-29.7-1.5-47.9-20.4-51.5-24.4-3.5-4-8.9-11.4-11.1-21.9-.9-4.2-1.1-8-1-11.1.1-22.2.2-44.3.3-66.5.2-2.5.8-6.1,2.4-10.1,5.9-14.8,19.8-21.1,23.3-22.6,3.5-1.6,13.5-5.9,26.5-3.8,17.3,2.8,27.2,15,29.5,18Z"/>
          <g>
            <path class="st6" d="M1317,209.1c0,1.9-.4,3.7-1.3,5.3s-1,1.5-1.7,2.2c-2.4,2.4-5.2,2.8-6.8,3-1.2.2-4.4.6-7.8-1-1.9-.9-4,1.9-5.7,1.9s-1.1-9.7-1.1-12.3c.1-17.3,0-12,0-29.7,0-6.9-.1-13.8-.2-20.6s0-1.3-.2-1.9-.3-1.4-.6-2.2c-.9-2.7-2.3-4.4-3-5.3-.5-.6-3.1-3.7-7.8-5.8-4.6-2-8.8-2-11.3-1.8-4.2.4-7.2,1.9-7.8,2.3-4.5,2.4-6.9,5.9-7.8,7.3-1.1,1.6-3.2,4.9-3.5,9.8-.4,5.1,1.4,9,2.3,10.6,1.6,3,3.8,4.9,5,6,.7.6,2.1,1.7,3.9,2.8.9.5,2.5,1.5,4.7,2.2,1.4.4,3.2.7,6.9,1.3,2.2.4,2.5.4,3.4.7.7.2,2.5.9,4.2,2.7,2.2,2.3,2.6,4.9,2.8,6.2.2,1.3.6,3.6-.5,6.2-1.2,2.9-3.4,4.4-4.4,5-2.2,1.4-4.1,1.7-6.9,2.2-4.4.7-7.9.3-9.4.2-1.1-.1-5.7-.8-11.2-3.4-2-.9-9.1-4.4-15.4-12.2-1.8-2.2-5.6-7-7.9-14.4-2.1-6.9-1.8-12.4-1.5-16.9.3-4.6.6-10.7,3.9-17.8,1.6-3.5,4.6-8.9,10.2-13.9,6.4-5.7,12.7-7.9,15.8-8.9,1.9-.6,8.7-2.7,17.8-2.3,4.8.2,12.3.6,20.3,5.2,7.8,4.5,12,10.5,14.6,14.4,4.3,6.5,6.3,11.5,7.4,17,.2.8.3,1.7.3,2.5.1,25.4.3,27.9.4,53.3Z"/>
            <path class="st6" d="M930.4,101.8c0-1.7.4-3.4,1.2-4.9.4-.7.9-1.4,1.6-2,2.2-2.2,4.8-2.6,6.3-2.8,1.1-.2,4-.6,7.2.9,1.7.8,3,2,4,3.1,1.5,1.8,2.3,4.1,2.2,6.5-.1,16,0,32.1,0,48.5,0,6.4.1,12.7.2,19,0,.6,0,1.2.2,1.7.1.6.3,1.3.5,2,.9,2.5,2.1,4.1,2.8,4.9.5.6,2.9,3.4,7.2,5.3,4.2,1.9,8.1,1.9,10.4,1.6,3.9-.4,6.6-1.8,7.2-2.1,4.2-2.2,6.3-5.4,7.2-6.7,1-1.5,2.9-4.6,3.3-9.1.3-4.7-1.3-8.3-2.1-9.8-1.5-2.8-3.5-4.5-4.6-5.6-.7-.6-1.9-1.6-3.6-2.6-.8-.5-2.3-1.4-4.3-2-1.3-.4-3-.7-6.3-1.2-2-.3-2.3-.3-3.1-.6-.6-.2-2.3-.9-3.9-2.5-2-2.1-2.4-4.5-2.6-5.7-.2-1.2-.5-3.3.5-5.7,1.1-2.7,3.1-4,4-4.6,2-1.3,3.8-1.6,6.3-2,4.1-.6,7.3-.3,8.7-.2,1.1.1,5.3.7,10.4,3.1,1.8.9,8.4,4.1,14.2,11.3,1.7,2,5.2,6.5,7.3,13.3,1.9,6.3,1.6,11.4,1.4,15.6-.2,4.3-.6,9.9-3.6,16.4-1.5,3.2-4.3,8.2-9.4,12.8-5.9,5.3-11.7,7.3-14.5,8.2-1.8.6-8,2.5-16.4,2.2-4.4-.2-11.3-.6-18.7-4.8-7.2-4.1-11.1-9.7-13.5-13.3-4-6-5.8-10.6-6.8-15.7-.2-.8-.3-1.5-.3-2.3-.1-23.4-.2-46.8-.4-70.2Z"/>
            <path class="st6" d="M1068.1,151.5c6.2-.1,12.4-.3,18.6-.4-.6-1.4-1.9-3.7-4.2-5.7-4.4-3.9-9.7-4.1-11.8-4.2-2.2,0-5.9.1-9.9,2-3.7,1.7-6,4.1-7,5.3-.9,1-2.8,3.3-3.9,6.8-.8,2.5-.8,4.5-.9,6.6,0,2.1,0,4.2.7,6.8,1,3.5,2.9,5.8,4.6,7.9,1.4,1.6,2.9,3.4,5.5,5,2.4,1.5,4.5,2,5.3,2.2,2,.5,3.5.5,5.5.4,3.1,0,6.1.1,9.2,0,3.7-.2,10.8-.3,25.2-.2,1.1.2,3,.8,4.8,2.2,2.7,2.1,3.8,4.7,4.2,5.7.4,1.1,1.1,3,.9,5.5-.2,2.2-1.1,3.7-2,5.3-.8,1.4-1.7,3-3.5,4.2-1.2.8-2.3,1.1-3.1,1.3h-42.5c-1.4-.2-3.3-.5-5.5-1.1-4.8-1.3-8.5-3-10.3-3.9-8.7-4.7-13.3-11.9-15.6-15.3-2-3-3.3-5.8-4.2-7.9-1.9-4.5-2.7-8.2-3.1-10.1-1.2-6.1-1-11.5-.4-15.8.5-2.1,1.2-4.8,2.4-7.9.8-2,2-5.1,4.2-8.5.8-1.3,4.6-7.1,11.8-12.3,3.8-2.7,7.1-4.2,8.5-4.8,1.2-.5,6.7-2.8,14.5-3.5,2.2-.2,5.3-.5,9.4,0,1.4.2,7.3.9,14.2,4.4,5.1,2.5,8.6,5.5,10.7,7.4,4.2,4,6.6,7.7,8.1,10.1,1.9,3,4.1,6.6,5.5,11.8.5,1.9.8,4.2,1.3,8.8.3,2.5.4,4.1,0,6.1-.5,2.5-1.5,4-1.8,4.4-.4.7-1.3,1.9-2.8,2.8-1.5.9-2.9,1.2-3.7,1.3-13.1,0-26.1.1-39.2.2-1.1-.2-3.5-.9-5.7-3.1-.9-.9-3.3-3.4-3.5-7.4-.2-3.8,1.6-6.5,2.4-7.7,1.3-1.9,2.9-3.1,4.1-3.8.9-.5,1.9-.8,2.9-.8Z"/>
            <path class="st6" d="M1171.3,151.5c6.2-.1,12.4-.3,18.6-.4-.6-1.4-1.9-3.7-4.2-5.7-4.4-3.9-9.7-4.1-11.8-4.2-2.2,0-5.9.1-9.9,2-3.7,1.7-6,4.1-7,5.3-.9,1-2.8,3.3-3.9,6.8-.8,2.5-.8,4.5-.9,6.6,0,2.1,0,4.2.7,6.8,1,3.5,2.9,5.8,4.6,7.9,1.4,1.6,2.9,3.4,5.5,5,2.4,1.5,4.5,2,5.3,2.2,2,.5,3.5.5,5.5.4,3.1,0,6.1.1,9.2,0,3.7-.2,10.8-.3,25.2-.2,1.1.2,3,.8,4.8,2.2,2.7,2.1,3.8,4.7,4.2,5.7.4,1.1,1.1,3,.9,5.5-.2,2.2-1.1,3.7-2,5.3-.8,1.4-1.7,3-3.5,4.2-1.2.8-2.3,1.1-3.1,1.3h-42.5c-1.4-.2-3.3-.5-5.5-1.1-4.8-1.3-8.5-3-10.3-3.9-8.7-4.7-13.3-11.9-15.6-15.3-2-3-3.3-5.8-4.2-7.9-1.9-4.5-2.7-8.2-3.1-10.1-1.2-6.1-1-11.5-.4-15.8.5-2.1,1.2-4.8,2.4-7.9.8-2,2-5.1,4.2-8.5.8-1.3,4.6-7.1,11.8-12.3,3.8-2.7,7.1-4.2,8.5-4.8,1.2-.5,6.7-2.8,14.5-3.5,2.2-.2,5.3-.5,9.4,0,1.4.2,7.3.9,14.2,4.4,5.1,2.5,8.6,5.5,10.7,7.4,4.2,4,6.6,7.7,8.1,10.1,1.9,3,4.1,6.6,5.5,11.8.5,1.9.8,4.2,1.3,8.8.3,2.5.4,4.1,0,6.1-.5,2.5-1.5,4-1.8,4.4-.4.7-1.3,1.9-2.8,2.8-1.5.9-2.9,1.2-3.7,1.3-13.1,0-26.1.1-39.2.2-1.1-.2-3.5-.9-5.7-3.1-.9-.9-3.3-3.4-3.5-7.4-.2-3.8,1.6-6.5,2.4-7.7,1.3-1.9,2.9-3.1,4.1-3.8s1.9-.8,2.9-.8Z"/>
            <path class="st6" d="M674.6,115.9c20.5.3,36.8-.3,43.3,0,2.6,0,5,1.2,7,3.1,2.4,2.4,3,5.2,3.3,6.5.3,1.3.6,4-.4,7-.5,1.4-1.3,3.9-3.7,5.7-1.8,1.3-3.7,1.7-4.7,1.8h-44.7c0,9,0,17.9-.1,26.9-.1,1.2-.5,5.8,2.6,10.2.8,1.2,3.2,4.3,7.6,5.7,1.4.4,5.4,1.6,10-.3.8-.3,4.9-2,7.3-6.5,1.1-2,1.5-3.8,1.7-5,0-2.1.1-3.7.3-5,.2-1.7.4-2.6.8-3.8.2-.5.9-2.2,2.6-3.9,2.4-2.4,5.1-3.1,6.1-3.3.5-.1,3.1-.6,6.2.3,1,.3,4.4,1.3,6.6,4.5.5.8.8,1.4,1,1.8.7,1.6,1.1,3.3,1.1,6.6,0,1.7,0,4-.5,7.1-.9,5.2-2.5,9-2.8,9.8-.5,1.1-1.7,3.7-3.9,6.7-.7.9-2.3,3-4.7,5.4-4.3,4.1-8.5,6.3-9.4,6.7-5.7,2.9-10.6,3.5-13,3.8-2,.2-6.3.6-11.6-.3-2-.3-5.7-.9-10-2.9-1.2-.6-6.1-2.9-11.1-7.8-5.1-5.1-7.5-10.3-8.3-12-1.3-2.9-1.8-5.4-2-6.2-.7-2.9-.8-5.3-.8-6.6-.1-4.9-.2-30.8,0-66.3,0-1,.1-2.6.8-4.3,1-2.6,2.7-4.1,3.2-4.5,2.1-1.8,4.2-2.2,5.4-2.5,3.5-.7,6.3.2,7,.4,2,.7,3.2,1.7,3.6,2,.4.3,1.5,1.2,2.5,2.8,1,1.6,1.4,3.1,1.7,4.1,0,2.1.2,4.2.2,6.5,0,1.9,0,3.8,0,5.7Z"/>
            <path class="st6" d="M864.7,115.9c20.5.3,36.8-.3,43.3,0,2.6,0,5,1.2,7,3.1,2.4,2.4,3,5.2,3.3,6.5.3,1.3.6,4-.4,7-.5,1.4-1.3,3.9-3.7,5.7-1.8,1.3-3.7,1.7-4.7,1.8h-44.7c0,9,0,17.9-.1,26.9-.1,1.2-.5,5.8,2.6,10.2.8,1.2,3.2,4.3,7.6,5.7,1.4.4,5.4,1.6,10-.3.8-.3,4.9-2,7.3-6.5,1.1-2,1.5-3.8,1.7-5,0-2.1.1-3.7.3-5,.2-1.7.4-2.6.8-3.8.2-.5.9-2.2,2.6-3.9,2.4-2.4,5.1-3.1,6.1-3.3.5-.1,3.1-.6,6.2.3,1,.3,4.4,1.3,6.6,4.5.5.8.8,1.4,1,1.8.7,1.6,1.1,3.3,1.1,6.6,0,1.7,0,4-.5,7.1-.9,5.2-2.5,9-2.8,9.8-.5,1.1-1.7,3.7-3.9,6.7-.7.9-2.3,3-4.7,5.4-4.3,4.1-8.5,6.3-9.4,6.7-5.7,2.9-10.6,3.5-13,3.8-2,.2-6.3.6-11.6-.3-2-.3-5.7-.9-10-2.9-1.2-.6-6.1-2.9-11.1-7.8-5.1-5.1-7.5-10.3-8.3-12-1.3-2.9-1.8-5.4-2-6.2-.7-2.9-.8-5.3-.8-6.6-.1-4.9-.2-30.8,0-66.3,0-1,.1-2.6.8-4.3,1-2.6,2.7-4.1,3.2-4.5,2.1-1.8,4.2-2.2,5.4-2.5,3.5-.7,6.3.2,7,.4,2,.7,3.2,1.7,3.6,2,.4.3,1.5,1.2,2.5,2.8,1,1.6,1.4,3.1,1.7,4.1,0,2.1.2,4.2.2,6.5,0,1.9,0,3.8,0,5.7Z"/>
            <g>
              <path class="st6" d="M1329,126c.1-.9.5-2.6,1.6-4.3.3-.5,1.3-2,3.2-3.2,3-2,6.2-1.9,8.1-1.8,2.3,0,4.5.2,6.8,1.7,2.8,1.9,3.8,4.8,4.1,5.8.2.7.3,1.4.4,1.8v71.4c0,1.1,0,3.4-1.5,5.9-.3.6-1.4,2.3-3.4,3.7-2.2,1.5-4.3,1.8-5.4,2-2.7.4-4.9-.2-5.4-.4-1.2-.3-3.6-1.1-5.7-3.4-2.1-2.4-2.6-5.1-2.7-6.2,0-24.3,0-48.6,0-72.9Z"/>
              <path class="st6" d="M1348.3,105.6c2.7-1.6,4.2-3.6,4.7-4.2,2.6-3.6,2.8-7.3,2.8-8.1.2-5.5-2.8-9.3-3.6-10.2-.7-.9-4.2-4.7-10.1-5.3-.3,0-8.1-.6-13,5.6-3.4,4.2-3.3,8.9-3.3,9.8.2,4.9,2.8,8.3,4.1,9.8,3,3.2,6.4,4.1,7.1,4.3.8.2,3.4.8,6.5.2.6-.1,2.6-.6,4.8-1.9Z"/>
            </g>
            <path class="st6" d="M805.4,197.7c0,1,.4,2.6,1.3,4.3,1.8,3.3,4.7,4.6,5.5,5,2.7,1.2,5.1,1.1,6.3,1,.9,0,2.6-.2,4.7-1.2.8-.4,3.1-1.5,4.8-4.2.8-1.3,1.2-2.6,1.4-3.4.1-4.3.2-8.6.3-13,.1-7.9.2-15.7.1-23.4,0-2.7,0-6.4-.9-10.7-.8-4.1-2.7-10.7-7.3-17.3-8.7-12.5-21.1-16.7-24-17.7-2.2-.7-10.3-3.1-20.8-1.6-3.8.5-15.1,2.3-25.2,11.6-2.2,2.1-8,7.8-11.7,17.2-5.1,13.3-2.4,24.9-1.5,28.9.8,3.3,2.5,10,7.7,16.9,5.9,7.8,13,11.5,16,13,7.4,3.7,14.3,4.7,18.7,5,.5,0,1.2,0,2.1,0,1.4,0,3.4-.2,5.2-.9,3.1-1.1,4.9-3.5,5.2-3.9,2.2-3.1,2.2-6.4,2.2-7.8,0-1.4,0-4.2-1.9-6.8,0-.1-2.1-3-5.3-4.1-.5-.2-1.4-.4-2.6-.6-.7-.1-1-.1-2.9-.3-1.7-.1-2.5-.2-2.8-.2,0,0-1.8-.2-3.7-.8-3.3-1.1-5.8-3-6.6-3.7-4.2-3.4-6.1-7.6-6.9-9.9-2.2-6-1.1-11.2-.8-12.4.8-3.6,2.3-6.1,2.9-7,.4-.6,1.9-2.8,4.5-4.9,3.4-2.7,6.7-3.8,8.3-4.3,5-1.4,9.1-.6,10-.4.8.2,4.6,1,8.6,3.9,1.4,1,4.6,3.7,6.8,8.1,1.6,3.2,2,6,2.1,6.8.1.8.1,1.5.2,2,0,6.7-.1,13.5,0,20.4,0,5.5,0,11,.2,16.4Z"/>
            <path class="st6" d="M1316.1,229c0,1.2-.2,2.3-.5,3.4-.1.4-.2.8-.4,1.2-.6,1.1-1.6,1.7-2.8,1.7-1.4,0-2.9.2-4.3.3-.3,0-.5.1-.8.2-.2,0-.5.1-.7.2-.2,0-.5,0-.7.2-.6.3-1.2.4-1.9.7-.5.2-1.1.4-1.5.7-.7.5-1.5.7-2.2,1.1-.7.4-1.5.7-2.2,1.1-.6.3-1.2.3-1.8.3-.3,0-.6,0-.9-.1-.8-.2-1.5-.4-2.1-1-1-.9-1.5-2-1.9-3.2-.3-.8-.4-1.7-.7-2.5-.2-.8-.3-1.7-.3-2.5,0-.5,0-.9.3-1.4.2-.4.5-.9.9-1.2.2-.1.4-.3.6-.4,1.2-.5,2.4-1,3.7-1.3.7-.1,1.4-.2,2.2-.3.8,0,1.6-.2,2.4-.3.9-.2,1.9-.2,2.8-.4.9-.1,1.8-.3,2.7-.4.7,0,1.3-.1,2-.2.2,0,.4,0,.7-.1.5,0,1,0,1.4,0,.5,0,1,0,1.5,0,.3,0,.6,0,.9,0,.4,0,.8,0,1.2,0,.7-.2,1.2.2,1.6.7.4.5.7,1,.8,1.7,0,.5.1.9.2,1.4,0,.2,0,.4,0,.5Z"/>
            <path class="st6" d="M1309.7,286.7c0-.3.2-.7.3-1.1.2-.4.3-.7.6-1.1.4-.5.8-1.1,1.3-1.5,0,0,.2-.2.2-.2.6-.7,1.3-1.5,2-2.2.3-.4.7-.7,1.1-1,.3-.3.6-.5.9-.8.4-.4.9-.7,1.4-1,.2-.1.4-.3.6-.4,0,0,.1,0,.2-.1.4-.2,1-.6,1.4-.8s.6-.3.8-.4c.5-.2,1.1-.2,1.6-.2.4,0,.8.1,1.2.3.6.3,1.2.8,1.8,1.2.4.3.6.7.9,1.1.4.6.4,1.2.5,1.9,0,.4,0,.7-.2,1.1-.1.6-.3,1.1-.5,1.7-.2.4-.4.8-.5,1.2,0,.2-.2.4-.3.5-.2.3-.4.6-.5.9,0,.2-.2.5-.3.7,0,0-.1.2-.1.3-.1.6-.4,1.2-.7,1.8-.2.4-.3.8-.5,1.2,0,.2-.1.3-.2.5-.2.5-.4,1-.6,1.6-.3,1-1,1.9-1.6,2.8-.1.2-.3.3-.4.4-.3.4-.6.7-1,1.1,0,0,0,.1,0,.1-.6.4-1.1.8-1.9.8-.6,0-1.2-.2-1.6-.7-.4-.4-.9-.8-1.3-1.2-.2-.2-.4-.4-.7-.6-.8-.7-1.4-1.5-2-2.3-.4-.5-.8-1.1-1.3-1.6-.2-.3-.4-.6-.6-.9-.5-.7.1-2.7,0-3Z"/>
            <path class="st6" d="M1299.2,221.8c-1,0-2,0-3.1-.1-.6-.1-1.7,0-2.3-.4-.7-.5-.7-1.3-.9-2.2,0-.2,0-.4,0-.5,0-.3,0-.6-.1-.9,0-.1,0-.3,0-.4.1-.4.2-.8.4-1.2,0-.2.2-.4.4-.5.5-.3,1-.5,1.5-.8.2,0,.4-.1.5-.1.6,0,1.2-.3,1.8-.6.8-.3,1.6-.6,2.4-1,.2,0,.3-.2.4-.3.2-.1.4-.3.7-.4.3-.2.6-.3.9-.5.6-.3,1-.7,1.5-1.1.5-.5,1.1-1.1,1.6-1.6,0,0,0-.1.1-.1.6-.3.9-.8,1.4-1.2.5-.4,1-.8,1.5-1.2,0,0,.1-.1.2-.2.4-.6,1-.9,1.5-1.4,0,0,.2,0,.3-.1.2-.1.5-.2.7-.4,0,0,.2-.1.2-.1.3,0,.5,0,.8-.3,0,0,0,0,0,0,.4,0,.8,0,1.1,0,.3,0,.5.3.6.7.1.5.3,1.1.5,1.6,0,.1,0,.3,0,.4,0,.7.2,1.4.3,2.1,0,.2.1.5.2.7.2.7.3,1.3.3,2.1,0,0,0,.1,0,.2.2.7.2,1.5.3,2.3,0,0,0,.2,0,.3-.2.7-.4,1.3-.8,1.9,0,0-.1.2-.2.2-.5.5-1.1.9-1.7,1.2-.8.4-1.5.7-2.3,1.1-.8.4-1.5.8-2.3,1-.9.3-1.8.5-2.7.9-.9.4-1.9.6-2.9.8-.7.2-1.5.2-2.3.3-.2,0-.3,0-.5,0Z"/>
            <path class="st6" d="M1316.9,261.3c.2,0,.3,0,.5,0,.2,0,.4,0,.6.2.5.3.8.9,1.1,1.4,0,0,0,0,0,0,0,.4.2.7.3,1.1.2.7.4,1.4.5,2.1,0,.7,0,1.4,0,2.1,0,.4-.2.8-.4,1.1-.2.3-.5.5-.9.7-.6.3-1.3.4-2,.7-.6.3-1.3.4-2,.6-.1,0-.3,0-.4.2-.5.4-1.1.6-1.7.9-.3.1-.6.3-.8.5-.2.1-.4.2-.6.4-.5.4-1,.8-1.6,1.1-.5.3-.9.7-1.3,1.2-.2.2-.3.4-.4.5-.2.2-.4.5-.6.7-.3.3-.5.8-.8,1.2-.4.7-.8,1.4-1.2,2.1-.2.4-.6.5-1,.5-.8,0-1.5-.5-2.1-.9-.1-.1-.3-.2-.4-.3-.4-.2-.7-.6-.9-.9-.4-.6-.8-1.3-1.2-1.9-.6-1.1-.9-2.3-1.2-3.5-.1-.6-.2-1.3-.3-1.9,0-.3,0-.6,0-.9,0-.6.1-1.1.2-1.7,0-.2.2-.5.3-.7.1-.2.3-.4.4-.6.4-.7,1-1.1,1.7-1.4.6-.3,1.2-.5,1.7-.8.5-.3,1.1-.4,1.6-.7.2-.2.6-.2.9-.3,1-.3,1.9-.7,2.9-1,.8-.3,1.6-.4,2.3-.7,1.1-.4,2.2-.5,3.2-.9.4-.1.8-.2,1.2-.2.6,0,1.2-.1,1.8-.2,0,0,.2,0,.3,0,0,0,0,0,0,0Z"/>
            <path class="st6" d="M1293.4,250.4c0-.7.1-1.3.5-1.8,0-.1.2-.3.3-.4.6-.5,1.1-.9,1.9-1,.2,0,.4-.2.6-.3.3-.1.5-.3.8-.4,1.1-.3,2.1-.8,3.3-1.2,1.5-.4,2.9-.8,4.4-1.1,1-.2,2-.5,3.1-.7.6-.1,1.1-.2,1.7-.3.9-.2,1.9-.2,2.9-.1,0,0,.2,0,.2,0,.4-.1.7,0,1.1,0,.8,0,1.2.5,1.6,1.1.3.5.5,1.1.5,1.7,0,.5.1.9.4,1.4.2.2.1.6.2.9,0,.3,0,.5,0,.8,0,.1,0,.3,0,.4,0,.1,0,.2,0,.3.2.8,0,1.5-.2,2.2-.2.4-.3.8-.5,1.2-.2.4-.5.7-1,.7-.1,0-.3,0-.4,0-1.3.2-2.5.2-3.8.3-.9,0-1.8,0-2.7.2-.8.2-1.7.4-2.5.7-.6.2-1.2.5-1.8.8-.6.3-1.2.6-1.8.9-.2.1-.4.3-.6.5-.4.3-.6.7-1.1,1-.7.4-1.3.4-1.9.1-1-.4-1.9-1.1-2.5-1.9-.8-1-1.5-2-2-3.3-.3-.8-.4-1.6-.5-2.4Z"/>
            <path class="st6" d="M1339.1,286.3c0,.7,0,1.3-.1,2,0,.2-.1.4-.2.6-.2.8-.4,1.6-.5,2.5,0,.5-.2,1-.2,1.5-.2,1-.3,2-.2,3.1,0,.5.1,1,.2,1.5,0,.3,0,.6,0,.9.1.8.3,1.7.3,2.5,0,.4,0,.8,0,1.2,0,.1,0,.2,0,.3-.3,1-1,1.6-1.9,1.9-.2,0-.4.2-.6.3,0,0,0,0-.1,0-.6,0-1.2.2-1.8.1-.8,0-1.5-.3-2.3-.3,0,0-.1,0-.2,0-.5-.2-1-.3-1.5-.5-.7-.2-1.2-.6-1.6-1.3-.4-.7-.6-1.4-.7-2.2,0-.8-.1-1.7,0-2.5,0-1.1.2-2.1.6-3.1.5-1.3.8-2.6,1.1-3.9.2-.9.5-1.8.7-2.7.2-.9.4-1.8.5-2.8,0-.5,0-1,.1-1.5,0-.5.2-1.1.3-1.6,0-.4.3-.6.7-.7,0,0,.2,0,.3,0,.8-.5,1.7-.3,2.6-.1.8.2,1.6.5,2.3.9,0,0,.2,0,.3.1.4.2.7.3.9.7,0,.1.2.2.2.3.6.7,1,1.4,1,2.3,0,.2,0,.4,0,.5,0,0,0,0,0,0Z"/>
            <path class="st6" d="M1346,293.8c0-1.3-.3-2.6-.5-3.8-.2-1.2-.5-2.4-.7-3.6-.1-.7-.2-1.4-.3-2.1,0-.6,0-1.1.5-1.6.6-.6,1.2-1.1,1.9-1.5.5-.3,1.1-.7,1.7-.8.9-.2,1.8,0,2.6.5.1,0,.2.2.3.3.2.2.3.4.5.5.5.4.8.9,1.1,1.4.5.8.9,1.5,1.3,2.3,0,0,0,.1,0,.2.2.6.5,1.2.7,1.8,0,.2.1.4.2.6.2.4.3.8.5,1.1.3.6.6,1.3.8,2,.2.7.5,1.4.8,2.1,0,0,0,.2,0,.3,0,.8.1,1.6.2,2.5,0,.3,0,.5-.3.7-.3.4-.6.6-.9.9-.5.4-.9.8-1.4,1.2-.5.4-1.1.8-1.7,1.2-.5.4-1.2.7-1.8,1-.5.3-1.1.6-1.6.9-.4.3-.9.4-1.4.5-.4,0-.8.1-1.3.1-.3,0-.6-.1-.9-.3-.6-.5-.8-1.2-.9-1.9,0-.4,0-.7,0-1.1,0-.5,0-1,0-1.5.1-1.1.3-2.2.4-3.3,0-.2,0-.5,0-.7Z"/>
            <path class="st6" d="M1380.6,266c0,.4,0,.8,0,1.3,0,.8,0,1.6,0,2.3,0,.1,0,.2,0,.3.1.7,0,1.2-.4,1.8,0,0,0,.2-.1.3,0,.3-.2.5-.4.7-.2.2-.4.4-.6.5-.2.2-.4.2-.6.1-.4-.2-.8-.4-1.2-.5-.9-.2-1.7-.6-2.6-.6-.5,0-.9-.1-1.4-.2-.2,0-.4-.1-.7-.1-.9-.1-1.8-.5-2.7-.9-.2,0-.3-.2-.5-.3-.4-.2-.9-.5-1.3-.7-.4-.2-.8-.4-1.2-.7-1.2-.8-2.4-1.6-3.7-2.4-.3-.2-.7-.4-1-.7-.1-.1-.2-.3-.2-.4,0-.4.2-.7.4-1,.4-.6.9-1.1,1.1-1.8.2-.7.6-1.3,1-1.9.4-.5.8-1,1.3-1.4,0,0,.1,0,.2-.1.9-.9,2.1-1.3,3.4-1.4.5,0,1,0,1.4,0,0,0,.2,0,.2,0,.7.2,1.3.4,2,.6.4.1.9.2,1.3.4.8.3,1.6.6,2.4.9.7.3,1.3.8,1.9,1.3.3.3.6.5.8.8.6.6.9,1.4,1,2.2,0,.5.1.9.2,1.4,0,0,0,0,0,0Z"/>
            <path class="st6" d="M1354.3,276.1c0-.6.2-1.1.5-1.5.7-.8,1.4-1.4,2.5-1.7.8-.2,1.4,0,2.1.2.6.3,1.1.7,1.7,1,0,0,.1.1.2.2.5.6,1.2,1,1.8,1.4.4.3.9.6,1.3.9.1,0,.3.2.4.2.5.3.9.6,1.5.8.6.2,1.2.5,1.8.7.5,0,1,.3,1.4.5.4.1.7.3,1.1.4.4.1.7.3,1,.4.5.3,1,.6,1.6.7,0,0,.1,0,.2,0,.4.4.9.6,1.2,1,0,0,0,.2,0,.3,0,.7-.2,1.2-.6,1.8-.4.6-.9,1.1-1.3,1.7-.1.2-.4.4-.5.5-.4.4-.9.9-1.3,1.3-.7.5-1.3,1-2.1,1.4,0,0-.2.1-.3.2-.4.3-.8.4-1.3.3,0,0-.2,0-.3,0-.3,0-.6,0-.9-.2-1.1-.5-1.9-1.3-2.5-2.3,0,0,0-.2-.2-.3-.4-.4-.8-.9-1.2-1.3-.7-.7-1.3-1.3-2-1.9-.4-.4-.9-.8-1.3-1.2-.8-.7-1.6-1.3-2.3-2.1-.7-.7-1.5-1.4-2.1-2.3-.3-.4-.3-.8-.3-1.2Z"/>
          </g>
        </g>
      </g>
    </g>
  </g>
  <g>
    <g>
      <path class="st3" d="M272.7,194.1c.2-4,.3-8.3.1-12.5-.2-5.5-1.1-10.8-4.2-15.5-1.5-2.3-3.3-4.4-4.7-6.6-5.9-9.1-5.9-18.5-1.7-28.2,1.9-4.4,4.9-8.1,8.7-11,3.9-3,6.6-7,8.7-11.4,2.5-5.3,4-10.9,5.6-16.4,1.8-6.5,3.5-13,6.2-19.2,2.2-4.9,4.9-9.6,8.6-13.5,5-5.3,11.2-8.6,18.3-10.2,6.5-1.4,13-1.3,19.5-.4,6.6.9,12.9,2.9,19.2,4.7,6.2,1.8,12.5,2.3,18.9,1.7,5.3-.5,10.7-.8,16-.3,11.3,1.1,21.4,5.2,30.1,12.5,6.3,5.4,11.1,12,15.3,19.1,4.4,7.4,8.2,15.2,12.4,22.8,4.5,8.1,9.2,16.1,14.9,23.4,3.5,4.5,7.5,8.4,11.7,12.2,2.8,2.5,5.3,5.2,6.9,8.6,2.4,5.1,2.4,10.4,1,15.7-1.7,6.3-5.1,11.7-9.3,16.6-3.7,4.3-7.8,8.3-12,12.1-8.8,8-15.9,17.2-21.4,27.7-3.4,6.5-6.9,12.9-11,18.9-4.4,6.6-9.5,12.6-16,17.3-3.1,2.3-6.5,4.2-10.1,5.6-2.8,1-5.8,1.5-8.7,2.1-7,1.4-14,2.6-21,3.2-8,.8-16,1-24,.4-9-.6-17.7-2.1-26.3-4.9-12-3.9-22.7-9.9-31.7-18.7-8-7.8-14-16.9-17.5-27.6-1.8-5.4-2.4-11-2.6-16.7-.1-3.7,0-7.4,0-11.4ZM328.5,56.2c-1.4,0-3.1,0-4.7.2-4.7.6-9.1,1.9-13.1,4.5-4.8,3.2-8.2,7.6-10.7,12.7-3,6-4.8,12.3-6.6,18.7-1.7,6.3-3.4,12.5-6.1,18.5-2.3,5.3-5.3,10.1-9.6,14.1-1.8,1.7-3.8,3.2-5.3,5.2-4.4,5.6-6.1,11.8-4.6,18.8.7,3.3,2.4,6.2,4.6,8.8,5.8,7,8.3,15,8.4,24,0,3.6,0,7.2-.1,10.7-.1,5.4-.2,10.8.1,16.2.2,2.4.4,4.8.9,7.2,2.4,10.1,7.4,18.7,14.5,26.2,7.9,8.5,17.5,14.4,28.4,18.2,12.7,4.5,25.8,6,39.3,5.5,7.5-.2,15-1.1,22.5-2.1,4.1-.6,8.2-1.4,12.2-2.4,6.6-1.6,11.9-5.3,16.7-9.9,3.8-3.6,6.9-7.8,9.7-12.2,3.9-6,7.2-12.4,10.6-18.7,5.3-9.6,11.7-18.4,19.8-25.9,4.6-4.2,9.1-8.5,13.3-13.2,3.2-3.6,5.9-7.5,7.6-12,1-2.9,1.6-5.8,1.1-8.8-.5-4-2.9-6.8-5.8-9.3-5.2-4.5-9.8-9.4-13.9-14.8-6.2-8.1-11.3-16.8-16.1-25.8-3.8-7.1-7.4-14.4-11.6-21.3-3.8-6.2-8.1-12-13.8-16.5-7.9-6.2-16.9-9.6-26.9-10-4.9-.2-9.8.2-14.7.6-5.2.3-10.3,0-15.3-1-4.3-1-8.4-2.3-12.6-3.4-5.8-1.5-11.6-2.8-17.9-2.8Z"/>
      <path class="st5" d="M328.5,56.2c6.3,0,12.1,1.2,17.9,2.8,4.2,1.1,8.4,2.4,12.6,3.4,5.1,1.1,10.2,1.4,15.3,1,4.9-.3,9.8-.8,14.7-.6,10,.5,19,3.8,26.9,10,5.8,4.5,10,10.3,13.8,16.5,4.2,6.9,7.8,14.2,11.6,21.3,4.8,8.9,9.9,17.7,16.1,25.8,4.1,5.4,8.8,10.4,13.9,14.8,2.9,2.5,5.3,5.3,5.8,9.3.4,3.1-.1,6-1.1,8.8-1.6,4.6-4.4,8.4-7.6,12-4.1,4.7-8.7,8.9-13.3,13.2-8.1,7.5-14.5,16.3-19.8,25.9-3.4,6.3-6.7,12.6-10.6,18.7-2.8,4.4-5.9,8.5-9.7,12.2-4.8,4.6-10.2,8.2-16.7,9.9-4,1-8.1,1.8-12.2,2.4-7.5,1.1-14.9,1.9-22.5,2.1-13.4.4-26.6-1-39.3-5.5-10.9-3.9-20.5-9.7-28.4-18.2-7-7.5-12.1-16.1-14.5-26.2-.6-2.4-.8-4.8-.9-7.2-.4-5.4-.3-10.8-.1-16.2,0-3.6.1-7.2.1-10.7-.1-9-2.6-17-8.4-24-2.1-2.6-3.9-5.4-4.6-8.8-1.5-7,.2-13.2,4.6-18.8,1.6-2,3.5-3.5,5.3-5.2,4.3-3.9,7.3-8.8,9.6-14.1,2.6-6,4.4-12.2,6.1-18.5,1.8-6.4,3.6-12.8,6.6-18.7,2.6-5.1,5.9-9.5,10.7-12.7,4-2.6,8.4-3.9,13.1-4.5,1.7-.2,3.3-.2,4.7-.2ZM320.4,202.7c2.5,1.2,5.1,2.3,7.8,3.2,5.5,1.8,11.2,2.9,16.9,4,4.9.9,9.8,1.5,14.7,2.1,4.8.5,9.7.4,14.5.5,4,.1,8,.2,12,.7,4.8.6,9.4.4,14.1-1,.9-.3,1.9-.5,2.9-.8-1.3,1.3-2.5,2.5-4,3.5-4,2.7-7.5,5.9-10.4,9.7-.2.3-.8.6-.5,1.1.3.5.8,0,1.2-.1,7.6-3.1,14.2-7.8,20.2-13.4,3.1-2.9,5.7-6.2,8.7-9.2,6.7-6.8,13.2-13.8,19.2-21.3,3.6-4.4,7-8.9,10.3-13.5.7-1,.5-2.1-.5-2.8-.3-.2-.7-.3-1-.5-8.8-3.2-16-8.7-21.9-15.9-3.9-4.8-7.4-9.9-11.1-14.9-5.1-6.9-9.9-13.9-15.2-20.6-4.3-5.4-9.5-9.6-15.9-12.3-1.4-.6-2.8-1.1-4.2-1.6,0,0,0-.1.1-.2.3-.2.7-.3,1-.5,3.1-1.6,5.7-3.7,8.1-6.1.3-.3.7-.7.3-1.2-.4-.5-.8-.3-1.2,0-.8.4-1.5.8-2.3,1.2-3.7,1.9-7.3,3.9-11.5,4.2-1.7.1-3.5.6-5.2.4-4.5-.6-9-.7-13.5-.7-4.4,0-8.8.3-13.2-.1-2.2-.2-4.4-.4-6.3-1.4-3.5-1.9-6.5-4.5-8.9-7.7-1.2-1.7-2.2-3.5-2.8-5.5-.1-.4-.2-.9-.8-.7-.6.1-.4.6-.3,1,0,.3,0,.7.1,1,.3,2.9.9,5.8,2.5,8.4.2.4.2.6-.2.8-2.7,1.8-4.6,4.4-6.1,7.2-1.8,3.3-2.9,6.8-4.1,10.4-3.8,11.3-10.3,20.6-19.9,27.7-2,1.5-4.1,2.9-6.2,4.3-1.4,1-1.5,2.7-.1,3.5,3.7,2,6.5,5.1,8.6,8.7,2.7,4.4,4.5,9.2,6.3,13.9,1.7,4.4,3.5,8.8,4.2,13.5.6,3.9,2.1,7.2,4.5,10.2,1.6,2,3,4.2,3.7,6.8.7,2.4,1.6,4.7,2.4,7,1,2.9,2.3,5.6,3.9,8.2.2.3.4.7.9.5.5-.2.3-.6.3-.9-.1-1-.3-2.1-.4-3.1-.4-2.6-1.2-5.1-1.9-7.6,0,0,0,0,.1-.1Z"/>
      <path class="st3" d="M320.3,202.8c.6,2.5,1.5,5,1.9,7.6.2,1,.3,2.1.4,3.1,0,.3.2.7-.3.9-.5.1-.7-.2-.9-.5-1.6-2.6-2.8-5.4-3.9-8.2-.9-2.3-1.7-4.7-2.4-7-.8-2.5-2.1-4.7-3.7-6.8-2.4-3-4-6.3-4.5-10.2-.7-4.7-2.5-9.1-4.2-13.5-1.8-4.8-3.6-9.6-6.3-13.9-2.2-3.6-4.9-6.6-8.6-8.7-1.4-.8-1.3-2.5.1-3.5,2.1-1.4,4.2-2.8,6.2-4.3,9.6-7.1,16.1-16.4,19.9-27.7,1.2-3.5,2.3-7.1,4.1-10.4,1.5-2.8,3.4-5.4,6.1-7.2.4-.3.4-.4.2-.8-1.6-2.5-2.2-5.4-2.5-8.4,0-.3,0-.7-.1-1,0-.4-.2-.9.3-1,.6-.1.7.3.8.7.6,2,1.6,3.8,2.8,5.5,2.4,3.3,5.4,5.8,8.9,7.7,1.9,1.1,4.1,1.2,6.3,1.4,4.4.4,8.8.2,13.2.1,4.5,0,9,.1,13.5.7,1.7.2,3.4-.3,5.2-.4,4.2-.3,7.9-2.2,11.5-4.2.8-.4,1.5-.8,2.3-1.2.4-.2.9-.4,1.2,0,.4.5,0,.9-.3,1.2-2.4,2.5-5,4.6-8.1,6.1-.3.2-.7.3-1,.5,0,0,0,0-.1.2,1.4.5,2.8,1,4.2,1.6,6.4,2.7,11.6,6.9,15.9,12.3,5.3,6.7,10.2,13.7,15.2,20.6,3.7,5,7.1,10.1,11.1,14.9,5.9,7.2,13.1,12.6,21.9,15.9.3.1.7.3,1,.5,1,.7,1.2,1.8.5,2.8-3.3,4.6-6.7,9.1-10.3,13.5-6,7.4-12.5,14.5-19.2,21.3-3,3-5.6,6.3-8.7,9.2-6,5.6-12.6,10.3-20.2,13.4-.4.1-.8.6-1.2.1-.3-.4.2-.8.5-1.1,2.9-3.8,6.4-7.1,10.4-9.7,1.5-1,2.7-2.2,4-3.5-1,.2-1.9.5-2.9.8-4.6,1.3-9.3,1.6-14.1,1-4-.5-8-.6-12-.7-4.8-.1-9.7,0-14.5-.5-4.9-.5-9.8-1.2-14.7-2.1-5.7-1-11.4-2.2-16.9-4-2.7-.9-5.2-1.9-7.8-3.2,0,0-.1,0-.1,0-.1,0,0,.1,0,.2ZM408.7,135c0,0,.1,0,.2,0,0,0,0-.1,0-.2-3.6-5-7.3-10.1-11-15.3-.2,1.8,0,3.4,0,5-.2,2.7,1,4.4,3,5.9,2.4,1.8,5,3.5,7.9,4.5ZM310.3,178.2c.3-1.2.6-2.4,1-3.5,2.3-7.9,6.2-14.9,12.4-20.4,4.9-4.4,10.6-6.5,17.1-6.6,2.2,0,4.4.1,6.6.3,3.7.3,7.2.9,10.7,2.3,3.5,1.4,6.6,3.2,8.9,6.2.2.3.4.4.7.2,2.7-1.4,5.7-2,8.7-2.2,5.2-.3,10.4,0,15.4,1.9,6.2,2.3,10.9,6.2,13.9,12.1,2.2,4.3,3.5,8.8,3.8,13.6.2,2.6,0,5.2-1,7.6-.2.6,0,.8.5.9,1,.3,2,.7,2.8,1.3,1.3.8,2,.8,3.2-.2,1.6-1.3,3.2-2.7,4.8-4.1,3.2-2.8,6.7-5,11.3-4.6.4,0,.6,0,.9-.4,1.6-1.9,3.1-3.8,4.7-5.8,2.2-2.7,4.2-5.5,6.3-8.3.4-.5.3-.7-.3-.9-1.8-.8-3.6-1.6-5.3-2.6-5.6-3.1-10.4-7.2-14.6-12.1-3.1-3.6-5.9-7.6-8.8-11.4-.6-.8-1.2-1.3-2.3-1.6-5.8-1.3-10.9-4-15.1-8.3-.5-.5-.8-.7-1.5-.3-.6.3-1.3.4-2,.6-4.1,1.2-8.3,1.3-12.5.8-4-.5-7.8-1.9-11.2-4-2.1-1.3-4-2.7-5.6-4.5-1.2-1.4-2.5-2.6-4.5-2.1-1.3.3-2.6.6-4,.7-3.7.3-7.4.2-11.1-.5-3.9-.7-7.5-2.1-10.9-4-2.1-1.1-4.3-1.7-6.7-1.4-2.4.2-4.8.4-7.2.3-.9,0-1.9-.2-2.7-.5-.7-.3-1,0-1.2.6-1,2.5-2.4,4.8-3.8,7.1-2.4,3.8-5.3,7.3-8.2,10.7-1.2,1.4-2.3,2.9-3.8,4.1-2,1.7-4.2,3-6.4,4.2-.7.4-.6.6,0,1.1,1.6,1.1,2.9,2.5,4.1,4.1,3.1,4,5.2,8.6,7.1,13.2,2.2,5.4,4.4,10.8,5.9,16.5ZM314.2,185.8c2.4-.9,4.8-1.1,7.2-.8,3.7.5,7.1,1.7,9.5,4.7.2.3.4.3.6.1,1.7-.8,3.6-.9,5.4-.6,1.9.3,3.8.6,5.6.9,3.1.6,6.1,1.4,8.5,3.5.3.3.5.1.7,0,2-1.5,4.3-2.2,6.7-2.3,4.5-.2,8.5,1.2,12.2,3.8.5.4.8.4,1.1-.1.7-1,1.8-1.6,3-2,.8-.2,1.6-.2,2.3-.5,4.9-1.6,9.8-3.1,13.2-7.5.2-.2.4-.4.8-.2.4.1.4.5.4.8,0,.3-.2.5-.3.7-1.2,2.6-2.8,5-5,6.9,0,0-.3.1-.2.4,2.2.8,4.4,1.7,6.2,3.3.4.3.4,0,.5-.2.3-.6.6-1.2,1-1.7,2.3-2.7,5.2-4.2,8.6-4.8.6-.1.7-.3.7-.9,0-1.5,0-2.9.3-4.4.5-3.4.4-6.7-.6-9.9-1.7-5.8-4.8-10.4-10.2-13.3-3.6-1.9-7.6-2.8-11.6-3.2-5.7-.5-11.1.2-15.9,3.5-2.5,1.7-4.9,3.4-7.3,5.1-1,.7-2.2,1.2-3.3,1.7-.2,0-.4.2-.5,0,0-.2.1-.3.2-.4.5-.5,1-.9,1.6-1.4,3.2-3,6-6.5,9.7-9.2-3.3-1.4-6.4-2.9-9.6-4-4.3-1.5-8.9-1.7-13.4-1.8-6.4,0-11.8,2.2-16.3,6.7-4.5,4.5-7.6,9.9-9.6,15.9-1.2,3.6-1.9,7.2-2.2,11.1ZM365.2,101.2c0,.2,0,.4,0,.6.3,5.7-.4,11.3-1.1,17,0,.3,0,.5.3.7,1,.7,1.7,1.6,2.6,2.4,7.9,7.2,17,9,27.1,5.6.6-.2.7-.5.6-1.1-.2-3.2-.3-6.3.6-9.4,0-.3,0-.5-.1-.8-3.6-4.4-7.7-8.1-12.8-10.5-5.5-2.6-11.2-3.9-17.3-4.5ZM351.9,119.2c2.3.1,5-.6,7.7-.9.5,0,.5-.3.6-.7,0-.8.2-1.7.3-2.5.8-4.4,1.7-8.8,3-13.1.2-.7,0-.9-.7-.9-4.5-.3-9-.3-13.6-.2-4.4,0-8.8,0-13.2-1.1-1-.2-1.1.1-1.3.9-1.1,4.2-1.7,8.5-2.2,12.8,0,.4,0,.5.4.6,1.1.5,2.2.9,3.2,1.5,4.8,2.4,9.9,3.6,15.8,3.7ZM390.9,205.7c0-.8,0-1.7,0-2.5,0-1.7-.7-3-2.1-3.9-3-1.9-6.4-2.8-9.9-2.8-3.5,0-4.5.8-5.5,4.2-.6,2.2-1,4.5-1.3,6.8,0,.7,0,.9.8.9,3.7,0,7.5.2,11.2.5,2,.2,4,.4,6,.5.5,0,.7,0,.7-.6-.1-1.1,0-2.1.1-3.2ZM364.6,208.3c1,0,1.9,0,2.9,0,.6,0,.7-.2.7-.7.2-2.6.6-5.1,1.3-7.6.2-.5,0-.8-.4-1.1-2.7-2.2-5.7-3.5-9.1-3.6-4.8-.1-6.9,1.4-8.2,5.7-.5,1.6-.7,3.3-.9,5,0,.6.2.8.7.8,4.3.6,8.6,1.2,13,1.4ZM394.7,205.6c0,1,0,2,0,3,0,.5.1.7.7.6,2.9-.5,5.7-1.3,8.5-2.3,2.7-1,5.5-2,7.9-3.6.4-.3.5-.6.4-1.1-.3-1.4-.6-2.9-.4-4.3.2-1.3-.3-1.8-1.4-2.3-1.7-.9-3.3-1.6-5.2-1.5-4.2,0-7.6,1.6-9.5,5.6-.2.4-.3.7-.6,1.1-.3.3-.4.7-.3,1.1.2,1.3.1,2.5,0,3.8ZM335.5,193.1c-1.3,0-2.6.1-3.4,1.3-1.4,2.1-2.3,4.3-2.6,6.8,0,.7.1.9.8,1.1,5.3,1.6,10.6,2.7,16,3.6.6.1.8-.1.8-.7.2-2.6.7-5.1,1.8-7.4.2-.5.2-.7-.2-1.1-.7-.7-1.5-1.2-2.5-1.5-3.4-1.3-7.1-1.6-10.6-2.2ZM327,113.1c.6,0,1.3,0,1.9,0,.4,0,.7,0,.6-.6,0-1.2,0-2.3.2-3.4.5-3.3,1.4-6.5,2.5-9.7.2-.5.1-.7-.4-.9-1.7-.6-3.3-1.5-4.7-2.6-.5-.4-.7-.2-1.1,0-1.9,1.4-3.3,3.2-4.4,5.3-1.9,3.5-3.1,7.3-4.4,11.1-.1.4,0,.5.3.7.8.3,1.6.5,2.4.5,2.3,0,4.7-.4,7-.4ZM319.3,188.9c-1.3,0-2.5.1-3.6.7-.5.2-.5.4-.2.9,1.2,2,2.8,3.8,3.6,6.1.2.5.6.8.9,1.1,1.5,1.3,3.3,2.2,5.2,3,.5.2.5,0,.6-.4.3-2.1,1-4,1.9-5.9.7-1.4.6-1.8-.5-2.9-.3-.3-.7-.6-1.1-.8-2.1-1.2-4.3-1.7-6.7-1.7ZM427.9,187.1c-.5.2-.8.3-1.1.4-1.5.6-2.9,1.6-4.1,2.7-2.3,1.9-4.4,4.1-7.1,5.6-.2,0-.2.2-.2.4,0,1.3,0,2.5.3,3.9,4.2-4.2,8.3-8.4,12.3-13Z"/>
      <path class="st9" d="M310.3,178.2c-1.6-5.7-3.7-11.1-5.9-16.5-1.9-4.7-4-9.2-7.1-13.2-1.2-1.5-2.5-2.9-4.1-4.1-.6-.4-.6-.7,0-1.1,2.3-1.2,4.4-2.6,6.4-4.2,1.4-1.2,2.6-2.6,3.8-4.1,2.9-3.4,5.7-6.9,8.2-10.7,1.4-2.3,2.8-4.6,3.8-7.1.2-.6.5-.9,1.2-.6.8.4,1.8.5,2.7.5,2.4,0,4.8,0,7.2-.3,2.4-.2,4.6.3,6.7,1.4,3.5,1.8,7.1,3.3,10.9,4,3.7.7,7.4.8,11.1.5,1.4-.1,2.7-.4,4-.7,2.1-.5,3.3.7,4.5,2.1,1.6,1.8,3.5,3.3,5.6,4.5,3.5,2.1,7.2,3.5,11.2,4,4.2.5,8.4.4,12.5-.8.7-.2,1.4-.3,2-.6.7-.3,1-.1,1.5.3,4.2,4.2,9.3,7,15.1,8.3,1.1.2,1.7.8,2.3,1.6,2.8,3.9,5.6,7.8,8.8,11.4,4.2,4.8,9,9,14.6,12.1,1.7.9,3.5,1.8,5.3,2.6.6.2.6.4.3.9-2,2.8-4.1,5.6-6.3,8.3-1.5,1.9-3.1,3.8-4.7,5.8-.2.3-.5.4-.9.4-4.5-.4-8,1.8-11.3,4.6-1.6,1.4-3.2,2.8-4.8,4.1-1.2,1-1.9,1-3.2.2-.9-.6-1.8-1-2.8-1.3-.5-.1-.7-.4-.5-.9.9-2.5,1.1-5,1-7.6-.3-4.8-1.6-9.3-3.8-13.6-3-5.9-7.7-9.8-13.9-12.1-5-1.8-10.2-2.3-15.4-1.9-3,.2-6,.8-8.7,2.2-.3.2-.5.1-.7-.2-2.3-3-5.4-4.9-8.9-6.2-3.4-1.3-7-1.9-10.7-2.3-2.2-.2-4.4-.3-6.6-.3-6.5,0-12.2,2.2-17.1,6.6-6.2,5.6-10,12.5-12.4,20.4-.3,1.2-.6,2.4-1,3.5Z"/>
      <path class="st4" d="M314.2,185.8c.2-3.9,1-7.5,2.2-11.1,2-6,5.1-11.4,9.6-15.9,4.5-4.5,9.9-6.8,16.3-6.7,4.5,0,9.1.3,13.4,1.8,3.3,1.1,6.4,2.7,9.6,4-3.7,2.7-6.5,6.2-9.7,9.2-.5.5-1,.9-1.6,1.4-.1.1-.3.2-.2.4.1.3.4.1.5,0,1.2-.5,2.3-1,3.3-1.7,2.5-1.7,4.9-3.4,7.3-5.1,4.8-3.3,10.3-4,15.9-3.5,4.1.4,8,1.3,11.6,3.2,5.5,2.8,8.5,7.5,10.2,13.3,1,3.3,1.1,6.6.6,9.9-.2,1.5-.4,2.9-.3,4.4,0,.6,0,.8-.7.9-3.4.6-6.3,2.1-8.6,4.8-.4.5-.8,1.1-1,1.7,0,.2-.2.5-.5.2-1.8-1.6-4-2.5-6.2-3.3,0-.2,0-.3.2-.4,2.2-1.9,3.8-4.3,5-6.9.1-.2.2-.5.3-.7,0-.3,0-.6-.4-.8-.3-.1-.6,0-.8.2-3.3,4.3-8.3,5.8-13.2,7.5-.7.2-1.5.2-2.3.5-1.2.4-2.3,1-3,2-.4.6-.6.5-1.1.1-3.6-2.6-7.6-4-12.2-3.8-2.4.1-4.7.7-6.7,2.3-.2.2-.4.3-.7,0-2.4-2.2-5.4-3-8.5-3.5-1.9-.3-3.8-.6-5.6-.9-1.9-.3-3.7-.2-5.4.6-.3.1-.4.1-.6-.1-2.5-3-5.8-4.2-9.5-4.7-2.4-.4-4.8-.1-7.2.8Z"/>
      <path class="st6" d="M365.2,101.2c6,.6,11.8,1.9,17.3,4.5,5.1,2.4,9.3,6.1,12.8,10.5.2.3.2.5.1.8-1,3.1-.9,6.3-.6,9.4,0,.6,0,.9-.6,1.1-10.1,3.4-19.2,1.6-27.1-5.6-.9-.8-1.6-1.7-2.6-2.4-.3-.2-.3-.4-.3-.7.7-5.6,1.3-11.3,1.1-17,0-.2,0-.4,0-.6Z"/>
      <path class="st6" d="M351.9,119.2c-5.9,0-11-1.2-15.8-3.7-1-.5-2.1-1-3.2-1.5-.3-.1-.4-.3-.4-.6.5-4.3,1.1-8.6,2.2-12.8.2-.8.3-1.1,1.3-.9,4.3,1,8.7,1.1,13.2,1.1,4.5,0,9.1,0,13.6.2.7,0,.9.3.7.9-1.2,4.3-2.1,8.7-3,13.1-.2.8-.2,1.7-.3,2.5,0,.4,0,.6-.6.7-2.7.4-5.4,1-7.7.9Z"/>
      <path class="st6" d="M390.9,205.7c0,1.1-.2,2.1-.1,3.2,0,.5-.2.6-.7.6-2-.2-4-.4-6-.5-3.7-.3-7.5-.5-11.2-.5-.7,0-.9-.2-.8-.9.2-2.3.6-4.6,1.3-6.8,1-3.4,1.9-4.2,5.5-4.2,3.6,0,6.9.9,9.9,2.8,1.5.9,2.2,2.1,2.1,3.9,0,.8,0,1.7,0,2.5Z"/>
      <path class="st6" d="M364.6,208.3c-4.4-.2-8.7-.8-13-1.4-.6,0-.8-.2-.7-.8.2-1.7.4-3.4.9-5,1.3-4.2,3.4-5.8,8.2-5.7,3.4,0,6.4,1.4,9.1,3.6.4.3.5.6.4,1.1-.7,2.5-1.2,5-1.3,7.6,0,.5-.1.7-.7.7-1,0-1.9,0-2.9,0Z"/>
      <path class="st6" d="M394.7,205.6c.1-1.3.2-2.5,0-3.8,0-.4,0-.8.3-1.1.2-.3.4-.7.6-1.1,1.9-4,5.3-5.5,9.5-5.6,1.9,0,3.6.7,5.2,1.5,1.1.5,1.5,1,1.4,2.3-.2,1.4.1,2.9.4,4.3.1.5,0,.8-.4,1.1-2.4,1.6-5.2,2.7-7.9,3.6-2.8,1-5.6,1.8-8.5,2.3-.6.1-.7,0-.7-.6,0-1,0-2,0-3Z"/>
      <path class="st6" d="M335.5,193.1c3.6.6,7.2.9,10.6,2.2.9.3,1.8.9,2.5,1.5.3.3.4.6.2,1.1-1.1,2.4-1.6,4.9-1.8,7.4,0,.6-.1.8-.8.7-5.4-1-10.7-2.1-16-3.6-.7-.2-.8-.5-.8-1.1.3-2.5,1.2-4.7,2.6-6.8.8-1.2,2.1-1.4,3.4-1.3Z"/>
      <path class="st6" d="M327,113.1c-2.3,0-4.7.4-7,.4-.8,0-1.7-.2-2.4-.5-.3-.1-.4-.3-.3-.7,1.3-3.8,2.5-7.6,4.4-11.1,1.1-2,2.5-3.9,4.4-5.3.4-.3.6-.4,1.1,0,1.4,1.1,3,2,4.7,2.6.5.2.6.4.4.9-1.1,3.2-2,6.4-2.5,9.7-.2,1.1-.3,2.3-.2,3.4,0,.6-.2.6-.6.6-.6,0-1.3,0-1.9,0Z"/>
      <path class="st6" d="M319.3,188.9c2.4,0,4.6.5,6.7,1.7.4.2.8.5,1.1.8,1.2,1,1.2,1.5.5,2.9-1,1.9-1.6,3.8-1.9,5.9,0,.4-.1.6-.6.4-1.8-.8-3.6-1.7-5.2-3-.4-.3-.8-.7-.9-1.1-.8-2.2-2.4-4.1-3.6-6.1-.3-.5-.3-.7.2-.9,1.2-.5,2.4-.7,3.6-.7Z"/>
      <path class="st6" d="M408.7,135c-2.9-1-5.4-2.7-7.9-4.5-2-1.5-3.3-3.2-3-5.9.1-1.6-.1-3.1,0-5,3.7,5.2,7.4,10.2,11,15.3,0,0,0,0-.1.1Z"/>
      <path class="st6" d="M427.9,187.1c-4,4.6-8,8.8-12.3,13-.2-1.4-.3-2.6-.3-3.9,0-.2,0-.3.2-.4,2.7-1.5,4.8-3.7,7.1-5.6,1.3-1.1,2.6-2,4.1-2.7.3-.1.6-.2,1.1-.4Z"/>
      <path class="st10" d="M408.9,134.9c0,0,0,.1,0,.2,0,0-.1,0-.2,0,0,0,0,0,.1-.1Z"/>
      <path class="st0" d="M320.3,202.8c0,0-.1-.1,0-.2,0,0,0,0,.1,0,0,0,0,0-.1.1Z"/>
    </g>
    <g>
      <g>
        <path class="st3" d="M150.7,170.4c-10.8,0-20.5-4.1-28.2-11.7-7.7-7.7-11.7-17.4-11.7-28.2s4.1-20.5,11.7-28.2c7.7-7.7,17.4-11.7,28.2-11.7s20.5,4,28.2,11.7c7.7,7.7,11.7,17.4,11.7,28.2s-4.1,20.5-11.7,28.2c-7.7,7.7-17.4,11.7-28.2,11.7Z"/>
        <path class="st3" d="M150.7,275.2c-10.3,0-19.4-3.7-26.3-10.6-6.9-6.9-10.6-16-10.6-26.3v-70.6c0-10.3,3.7-19.4,10.6-26.3,6.9-6.9,16-10.6,26.3-10.6,21.8,0,37.1,15.2,37.1,36.9v70.6c0,10.4-3.8,19.5-10.9,26.5-7,6.8-16,10.4-26.2,10.4Z"/>
        <path class="st3" d="M72.2,275.2c-20.2,0-37.4-7-51.3-20.9C7,240.4,0,223.1,0,203v-73.7c0-10.1,3.7-19.2,10.7-26.2,7-7,16-10.7,26.2-10.7s19.2,3.6,26.1,10.4c7.1,7,10.9,16.1,10.9,26.5v1.3c19.5.4,36.3,7.4,49.8,20.9,13.9,13.9,20.9,31.2,20.9,51.5s-7.1,37.5-21.1,51.4c-13.9,13.9-31.2,20.9-51.3,20.9Z"/>
        <path class="st3" d="M222.4,275.2c-18,0-34-6.5-46.2-18.7-12.2-12.2-18.7-28.2-18.7-46.2v-64.7c0-10.1,3.6-19.2,10.4-26.1,7-7.1,16.1-10.9,26.5-10.9s19.4,3.7,26.4,10.7c3.5,3.5,6.2,7.6,8,12.1h21.5c10.3,0,19.3,3.7,26.3,10.6,6.9,6.9,10.6,16,10.6,26.3s-1.9,14.9-5.5,20.7c3.6,5.8,5.5,12.5,5.5,19.7v1.7c0,17.9-6.4,33.8-18.6,46.1-12.2,12.3-28.2,18.8-46.1,18.8Z"/>
        <path class="st3" d="M328.1,275.6c-20.3,0-37.6-7.1-51.5-21-13.8-13.9-20.8-31.2-20.8-51.4s7-37.6,20.8-51.4c13.8-13.8,31.1-20.8,51.4-20.8s38.2,7.6,52.2,22c7,7.3,10.7,16.2,10.7,25.6s-4.8,21.3-13.6,28.5l-5.8,5.6c6.7,6.9,10.2,15.8,10.2,25.9s-3.6,19.2-10.4,26.2c-7,7.1-16.1,10.9-26.5,10.9h-16.7Z"/>
        <rect class="st3" x="60.6" y="190.5" width="24.7" height="24.7" transform="translate(275.8 129.9) rotate(90)"/>
        <rect class="st3" x="352.1" y="201.2" width="24.7" height="24.7" transform="translate(578 -150.9) rotate(90)"/>
        <path class="st3" d="M150.7,165.6c-9.5,0-18-3.6-24.7-10.3-6.7-6.7-10.3-15.3-10.3-24.7s3.6-18,10.3-24.7c6.7-6.7,15.3-10.3,24.7-10.3s18,3.6,24.7,10.3c6.7,6.8,10.3,15.3,10.3,24.7s-3.6,18-10.3,24.7c-6.7,6.7-15.3,10.3-24.7,10.3Z"/>
        <path class="st3" d="M150.7,270.4c-9,0-16.9-3.2-22.9-9.2-6-6-9.2-13.9-9.2-22.9v-70.6c0-9,3.2-16.9,9.2-22.9,6-6,13.9-9.2,22.9-9.2,19.3,0,32.2,12.9,32.2,32v70.6c0,9-3.3,17-9.4,23-6.1,5.9-13.9,9-22.8,9Z"/>
        <path class="st3" d="M72.2,270.4c-18.8,0-34.9-6.6-47.9-19.5-12.9-12.9-19.5-29.1-19.5-47.9v-73.7c0-8.8,3.2-16.7,9.3-22.8,6.1-6.1,13.9-9.3,22.8-9.3s16.7,3.1,22.8,9c6.2,6,9.5,14,9.5,23v6.3c1,0,2.1-.1,3.2-.1,18.9,0,35.1,6.6,48.1,19.5,12.9,13,19.5,29.1,19.5,48.1s-6.6,35-19.7,47.9c-13,12.9-29.1,19.5-47.9,19.5ZM69.1,203c0,1.2.2,1.6.9,2.3s1.1.9,2.3.9,1.6-.2,2.4-1c.8-.7.9-1.1.9-2.2s-.1-1.5-1-2.4c-.8-.8-1.2-1-2.4-1s-2.1,0-3.2-.1v3.5Z"/>
        <path class="st3" d="M222.4,270.4c-16.7,0-31.5-6-42.8-17.3-11.3-11.3-17.3-26.1-17.3-42.8v-64.7c0-8.9,3.1-16.7,9-22.8,6-6.2,14-9.5,23-9.5s16.9,3.2,22.9,9.2c3.8,3.8,6.5,8.4,8,13.5h25c8.9,0,16.8,3.2,22.8,9.2,6,6,9.2,13.9,9.2,22.9s-2.4,15.3-6.6,20.8c4.3,5.6,6.6,12.3,6.6,19.7v1.7c0,16.6-5.9,31.3-17.2,42.7-11.3,11.4-26,17.4-42.7,17.4Z"/>
        <path class="st3" d="M328.1,270.7c-19,0-35.1-6.6-48-19.6-12.9-12.9-19.4-29.1-19.4-48s6.5-35.1,19.4-48c12.9-12.9,29-19.4,48-19.4s35.6,7.1,48.7,20.5c6.1,6.4,9.3,14.1,9.3,22.2s-4.3,18.6-12,24.9l-9.6,9.4c1.1.9,2.2,1.8,3.2,2.8,6,6,9.2,13.9,9.2,22.9s-3.1,16.7-9,22.8c-6,6.2-14,9.4-23,9.4h-16.7Z"/>
        <rect class="st3" x="65.5" y="195.3" width="15" height="15"/>
        <rect class="st3" x="356.9" y="206" width="15" height="15"/>
      </g>
      <g>
        <path class="st8" d="M139.7,119.5c3.1-3.1,6.7-4.6,11-4.6s7.9,1.5,11,4.6c3.1,3.1,4.6,6.7,4.6,11s-1.5,7.9-4.6,11c-3.1,3.1-6.7,4.6-11,4.6s-7.9-1.5-11-4.6c-3.1-3.1-4.6-6.7-4.6-11s1.5-7.9,4.6-11Z"/>
        <path class="st8" d="M163.5,167.8v70.6c0,3.8-1.2,6.8-3.6,9.1-2.4,2.3-5.5,3.5-9.2,3.5s-6.8-1.2-9.1-3.5c-2.3-2.3-3.5-5.4-3.5-9.1v-70.6c0-3.8,1.2-6.8,3.5-9.1,2.3-2.3,5.4-3.5,9.1-3.5,8.5,0,12.8,4.2,12.8,12.6Z"/>
        <path class="st8" d="M24.3,203v-73.7c0-3.6,1.2-6.6,3.6-9,2.4-2.4,5.4-3.6,9-3.6s6.8,1.2,9.2,3.5c2.4,2.3,3.6,5.4,3.6,9.1v73.7c0,6.3,2.2,11.6,6.6,16,4.4,4.4,9.7,6.6,16,6.6s11.6-2.2,16.1-6.6c4.5-4.4,6.7-9.7,6.7-16s-2.2-11.6-6.7-16.1c-4.5-4.5-9.8-6.7-16.1-6.7s-6.8-1.2-9.1-3.5c-2.3-2.3-3.5-5.4-3.5-9.1s1.2-6.8,3.5-9.2c2.3-2.4,5.4-3.6,9.1-3.6,13.7,0,25.1,4.6,34.3,13.8,9.2,9.2,13.8,20.7,13.8,34.3s-4.6,24.9-13.9,34.1c-9.3,9.2-20.7,13.8-34.2,13.8s-24.9-4.6-34.1-13.8c-9.2-9.2-13.8-20.6-13.8-34.1Z"/>
        <path class="st8" d="M222.4,250.9c-11.7,0-21.4-3.9-29.1-11.6-7.7-7.7-11.6-17.4-11.6-29.1v-64.7c0-3.8,1.2-6.8,3.5-9.2,2.3-2.4,5.4-3.6,9.1-3.6s6.8,1.2,9.2,3.6c2.4,2.4,3.6,5.5,3.6,9.2v10h43.1c3.8,0,6.8,1.2,9.1,3.5,2.3,2.3,3.5,5.4,3.5,9.1,0,8.5-4.2,12.8-12.6,12.8h-43.1v29.3c0,4.3,1.5,7.9,4.4,10.8,2.9,2.9,6.6,4.4,10.8,4.4s7.8-1.5,10.7-4.4c2.9-2.9,4.3-6.6,4.3-10.8v-1.7c0-3.6,1.2-6.6,3.7-9,2.4-2.4,5.5-3.6,9.1-3.6s6.6,1.2,9,3.6c2.4,2.4,3.6,5.4,3.6,9v1.7c0,11.5-3.9,21.2-11.6,29-7.7,7.8-17.3,11.7-28.9,11.7Z"/>
        <path class="st8" d="M328.1,180.6c-6.3,0-11.6,2.2-16,6.6-4.4,4.4-6.6,9.7-6.6,16s2.2,11.6,6.6,16.1c4.4,4.5,9.7,6.7,16,6.7h16.7c3.8,0,6.8,1.2,9.1,3.5,2.3,2.3,3.5,5.4,3.5,9.1s-1.2,6.8-3.5,9.2c-2.3,2.4-5.4,3.6-9.1,3.6h-16.7c-13.7,0-25.1-4.6-34.2-13.8-9.2-9.2-13.7-20.7-13.7-34.3s4.6-25.1,13.7-34.2c9.2-9.2,20.6-13.7,34.2-13.7s25.3,4.9,34.8,14.7c2.5,2.6,3.8,5.5,3.8,8.7s-1.8,7.6-5.5,10.3l-24.1,23.5c-2.8,2.6-5.7,4-8.8,4s-6.6-1.3-9.1-4c-2.6-2.6-3.9-5.7-3.9-9.2s1.4-6.1,4.1-8.8l13.5-13.4c-1.6-.2-3.3-.4-4.9-.4Z"/>
      </g>
      <g>
        <path class="st6" d="M139.7,119.5c3.1-3.1,6.7-4.6,11-4.6s7.9,1.5,11,4.6c3.1,3.1,4.6,6.7,4.6,11s-1.5,7.9-4.6,11c-3.1,3.1-6.7,4.6-11,4.6s-7.9-1.5-11-4.6c-3.1-3.1-4.6-6.7-4.6-11s1.5-7.9,4.6-11Z"/>
        <path class="st6" d="M163.5,167.8v70.6c0,3.8-1.2,6.8-3.6,9.1-2.4,2.3-5.5,3.5-9.2,3.5s-6.8-1.2-9.1-3.5c-2.3-2.3-3.5-5.4-3.5-9.1v-70.6c0-3.8,1.2-6.8,3.5-9.1,2.3-2.3,5.4-3.5,9.1-3.5,8.5,0,12.8,4.2,12.8,12.6Z"/>
        <path class="st6" d="M24.3,203v-73.7c0-3.6,1.2-6.6,3.6-9,2.4-2.4,5.4-3.6,9-3.6s6.8,1.2,9.2,3.5c2.4,2.3,3.6,5.4,3.6,9.1v73.7c0,6.3,2.2,11.6,6.6,16,4.4,4.4,9.7,6.6,16,6.6s11.6-2.2,16.1-6.6c4.5-4.4,6.7-9.7,6.7-16s-2.2-11.6-6.7-16.1c-4.5-4.5-9.8-6.7-16.1-6.7s-6.8-1.2-9.1-3.5c-2.3-2.3-3.5-5.4-3.5-9.1s1.2-6.8,3.5-9.2c2.3-2.4,5.4-3.6,9.1-3.6,13.7,0,25.1,4.6,34.3,13.8,9.2,9.2,13.8,20.7,13.8,34.3s-4.6,24.9-13.9,34.1c-9.3,9.2-20.7,13.8-34.2,13.8s-24.9-4.6-34.1-13.8c-9.2-9.2-13.8-20.6-13.8-34.1Z"/>
        <path class="st6" d="M222.4,250.9c-11.7,0-21.4-3.9-29.1-11.6-7.7-7.7-11.6-17.4-11.6-29.1v-64.7c0-3.8,1.2-6.8,3.5-9.2,2.3-2.4,5.4-3.6,9.1-3.6s6.8,1.2,9.2,3.6c2.4,2.4,3.6,5.5,3.6,9.2v10h43.1c3.8,0,6.8,1.2,9.1,3.5,2.3,2.3,3.5,5.4,3.5,9.1,0,8.5-4.2,12.8-12.6,12.8h-43.1v29.3c0,4.3,1.5,7.9,4.4,10.8,2.9,2.9,6.6,4.4,10.8,4.4s7.8-1.5,10.7-4.4c2.9-2.9,4.3-6.6,4.3-10.8v-1.7c0-3.6,1.2-6.6,3.7-9,2.4-2.4,5.5-3.6,9.1-3.6s6.6,1.2,9,3.6c2.4,2.4,3.6,5.4,3.6,9v1.7c0,11.5-3.9,21.2-11.6,29-7.7,7.8-17.3,11.7-28.9,11.7Z"/>
        <path class="st6" d="M328.1,180.6c-6.3,0-11.6,2.2-16,6.6-4.4,4.4-6.6,9.7-6.6,16s2.2,11.6,6.6,16.1c4.4,4.5,9.7,6.7,16,6.7h16.7c3.8,0,6.8,1.2,9.1,3.5,2.3,2.3,3.5,5.4,3.5,9.1s-1.2,6.8-3.5,9.2c-2.3,2.4-5.4,3.6-9.1,3.6h-16.7c-13.7,0-25.1-4.6-34.2-13.8-9.2-9.2-13.7-20.7-13.7-34.3s4.6-25.1,13.7-34.2c9.2-9.2,20.6-13.7,34.2-13.7s25.3,4.9,34.8,14.7c2.5,2.6,3.8,5.5,3.8,8.7s-1.8,7.6-5.5,10.3l-24.1,23.5c-2.8,2.6-5.7,4-8.8,4s-6.6-1.3-9.1-4c-2.6-2.6-3.9-5.7-3.9-9.2s1.4-6.1,4.1-8.8l13.5-13.4c-1.6-.2-3.3-.4-4.9-.4Z"/>
      </g>
    </g>
  </g>
  <rect class="st1" x="545.3" width="11.1" height="309.6"/>
</svg>